<svg width="30" height="30" viewBox="0 0 30 30" fill="none" xmlns="http://www.w3.org/2000/svg">
<path fill-rule="evenodd" clip-rule="evenodd" d="M8.125 20H20C22.357 20 23.5355 20 24.2678 19.2678C25 18.5355 25 17.357 25 15V8.75C25 6.39298 25 5.21447 24.2678 4.48223C23.5355 3.75 22.357 3.75 20 3.75H10C7.64298 3.75 6.46447 3.75 5.73223 4.48223C5 5.21447 5 6.39298 5 8.75V23.125C5 21.3991 6.39911 20 8.125 20ZM20.1642 11.4142C20.9453 10.6332 20.9453 9.36684 20.1642 8.58579C19.3832 7.80474 18.1168 7.80474 17.3358 8.58579L13.75 12.1716L12.6642 11.0858C11.8832 10.3047 10.6168 10.3047 9.83579 11.0858C9.05474 11.8668 9.05474 13.1332 9.83579 13.9142L11.6287 15.7071C12.8002 16.8787 14.6997 16.8787 15.8713 15.7071L20.1642 11.4142Z" fill="#A6A6A6"/>
<path d="M20.1642 8.58579L19.4571 9.29289L19.4571 9.29289L20.1642 8.58579ZM20.1642 11.4142L19.4571 10.7071V10.7071L20.1642 11.4142ZM17.3358 8.58579L16.6287 7.87868V7.87868L17.3358 8.58579ZM13.75 12.1716L13.0429 12.8787L13.75 13.5858L14.4571 12.8787L13.75 12.1716ZM9.83579 11.0858L9.12868 10.3787V10.3787L9.83579 11.0858ZM9.83579 13.9142L10.5429 13.2071H10.5429L9.83579 13.9142ZM11.6287 15.7071L12.3358 15L11.6287 15.7071ZM15.8713 15.7071L16.5784 16.4142V16.4142L15.8713 15.7071ZM20 19H8.125V21H20V19ZM23.5607 18.5607C23.4113 18.71 23.1798 18.8408 22.6099 18.9174C22.0113 18.9979 21.2068 19 20 19V21C21.1502 21 22.1135 21.0021 22.8764 20.8996C23.6681 20.7931 24.392 20.5578 24.9749 19.9749L23.5607 18.5607ZM24 15C24 16.2068 23.9979 17.0113 23.9174 17.6099C23.8408 18.1798 23.71 18.4113 23.5607 18.5607L24.9749 19.9749C25.5578 19.392 25.7931 18.6681 25.8996 17.8764C26.0021 17.1135 26 16.1502 26 15H24ZM24 8.75V15H26V8.75H24ZM23.5607 5.18934C23.71 5.33869 23.8408 5.57017 23.9174 6.14007C23.9979 6.73873 24 7.54322 24 8.75H26C26 7.59976 26.0021 6.63648 25.8996 5.87357C25.7931 5.0819 25.5578 4.35801 24.9749 3.77513L23.5607 5.18934ZM20 4.75C21.2068 4.75 22.0113 4.75212 22.6099 4.83261C23.1798 4.90923 23.4113 5.03999 23.5607 5.18934L24.9749 3.77513C24.392 3.19224 23.6681 2.95688 22.8764 2.85045C22.1135 2.74788 21.1502 2.75 20 2.75V4.75ZM10 4.75H20V2.75H10V4.75ZM6.43934 5.18934C6.58869 5.03999 6.82017 4.90923 7.39007 4.83261C7.98873 4.75212 8.79322 4.75 10 4.75V2.75C8.84976 2.75 7.88648 2.74788 7.12357 2.85045C6.3319 2.95688 5.60801 3.19224 5.02513 3.77513L6.43934 5.18934ZM6 8.75C6 7.54322 6.00212 6.73873 6.08261 6.14007C6.15923 5.57017 6.28999 5.33869 6.43934 5.18934L5.02513 3.77513C4.44224 4.35801 4.20688 5.0819 4.10045 5.87357C3.99788 6.63648 4 7.59976 4 8.75H6ZM6 23.125V8.75H4V23.125H6ZM8.125 19C5.84683 19 4 20.8468 4 23.125H6C6 21.9514 6.9514 21 8.125 21V19ZM19.4571 9.29289C19.8476 9.68342 19.8476 10.3166 19.4571 10.7071L20.8713 12.1213C22.0429 10.9497 22.0429 9.05025 20.8713 7.87868L19.4571 9.29289ZM18.0429 9.29289C18.4334 8.90237 19.0666 8.90237 19.4571 9.29289L20.8713 7.87868C19.6997 6.70711 17.8003 6.70711 16.6287 7.87868L18.0429 9.29289ZM14.4571 12.8787L18.0429 9.29289L16.6287 7.87868L13.0429 11.4645L14.4571 12.8787ZM11.9571 11.7929L13.0429 12.8787L14.4571 11.4645L13.3713 10.3787L11.9571 11.7929ZM10.5429 11.7929C10.9334 11.4024 11.5666 11.4024 11.9571 11.7929L13.3713 10.3787C12.1997 9.20711 10.3003 9.20711 9.12868 10.3787L10.5429 11.7929ZM10.5429 13.2071C10.1524 12.8166 10.1524 12.1834 10.5429 11.7929L9.12868 10.3787C7.95711 11.5503 7.95711 13.4497 9.12868 14.6213L10.5429 13.2071ZM12.3358 15L10.5429 13.2071L9.12868 14.6213L10.9216 16.4142L12.3358 15ZM15.1642 15C14.3832 15.781 13.1168 15.781 12.3358 15L10.9216 16.4142C12.4837 17.9763 15.0163 17.9763 16.5784 16.4142L15.1642 15ZM19.4571 10.7071L15.1642 15L16.5784 16.4142L20.8713 12.1213L19.4571 10.7071ZM13.75 25.25H8.125V27.25H13.75V25.25ZM4 23.125C4 25.4032 5.84683 27.25 8.125 27.25V25.25C6.95139 25.25 6 24.2986 6 23.125H4Z" fill="#A6A6A6"/>
<path d="M25 26.25H12.5" stroke="#A6A6A6" stroke-width="2" stroke-linecap="round"/>
</svg>
