<svg width="30" height="30" viewBox="0 0 30 30" fill="none" xmlns="http://www.w3.org/2000/svg">
<path d="M5.75 21.25H12.5C13.8807 21.25 15 22.3693 15 23.75V11C15 8.17157 15 6.75736 14.1213 5.87868C13.2426 5 11.8284 5 9 5H5.75C4.80719 5 4.33579 5 4.04289 5.29289C3.75 5.58579 3.75 6.05719 3.75 7V19.25C3.75 20.1928 3.75 20.6642 4.04289 20.9571C4.33579 21.25 4.80719 21.25 5.75 21.25Z" fill="#A6A6A6"/>
<path d="M24.25 21.25H17.5C16.1193 21.25 15 22.3693 15 23.75V11C15 8.17157 15 6.75736 15.8787 5.87868C16.7574 5 18.1716 5 21 5H24.25C25.1928 5 25.6642 5 25.9571 5.29289C26.25 5.58579 26.25 6.05719 26.25 7V19.25C26.25 20.1928 26.25 20.6642 25.9571 20.9571C25.6642 21.25 25.1928 21.25 24.25 21.25Z" fill="#A6A6A6"/>
</svg>
