<svg width="30" height="30" viewBox="0 0 30 30" fill="none" xmlns="http://www.w3.org/2000/svg">
<path fill-rule="evenodd" clip-rule="evenodd" d="M15 26.25C21.2132 26.25 26.25 21.2132 26.25 15C26.25 8.7868 21.2132 3.75 15 3.75C8.7868 3.75 3.75 8.7868 3.75 15C3.75 21.2132 8.7868 26.25 15 26.25ZM16.7929 18.2071C17.1834 18.5976 17.8166 18.5976 18.2071 18.2071C18.5976 17.8166 18.5976 17.1834 18.2071 16.7929L16.4142 15L18.2071 13.2071C18.5976 12.8166 18.5976 12.1834 18.2071 11.7929C17.8166 11.4024 17.1834 11.4024 16.7929 11.7929L15 13.5858L13.2071 11.7929C12.8166 11.4024 12.1834 11.4024 11.7929 11.7929C11.4024 12.1834 11.4024 12.8166 11.7929 13.2071L13.5858 15L11.7929 16.7929C11.4024 17.1834 11.4024 17.8166 11.7929 18.2071C12.1834 18.5976 12.8166 18.5976 13.2071 18.2071L15 16.4142L16.7929 18.2071ZM18.2528 7.14702C16.436 6.39447 14.4144 6.29516 12.5326 6.86601C10.6507 7.43686 9.02505 8.64255 7.93251 10.2777C6.83997 11.9128 6.34818 13.8761 6.54093 15.8331C6.73368 17.7902 7.59905 19.6199 8.98959 21.0104C9.38011 21.4009 10.0133 21.4009 10.4038 21.0104C10.7943 20.6199 10.7943 19.9867 10.4038 19.5962C9.34045 18.5328 8.6787 17.1337 8.5313 15.6371C8.3839 14.1405 8.75998 12.6392 9.59545 11.3888C10.4309 10.1384 11.6741 9.21642 13.1132 8.77989C14.5522 8.34336 16.0981 8.4193 17.4874 8.99478C18.8768 9.57027 20.0236 10.6097 20.7325 11.9359C21.4414 13.2622 21.6685 14.7932 21.3751 16.2681C21.0817 17.743 20.286 19.0706 19.1236 20.0246C17.9611 20.9786 16.5038 21.5 15 21.5C14.4477 21.5 14 21.9477 14 22.5C14 23.0523 14.4477 23.5 15 23.5C16.9665 23.5 18.8722 22.8181 20.3923 21.5706C21.9125 20.323 22.953 18.587 23.3367 16.6583C23.7203 14.7295 23.4233 12.7274 22.4963 10.9931C21.5693 9.25881 20.0696 7.89958 18.2528 7.14702Z" fill="#A6A6A6"/>
</svg>
