<svg width="20" height="20" viewBox="0 0 20 20" fill="none" xmlns="http://www.w3.org/2000/svg">
<path fill-rule="evenodd" clip-rule="evenodd" d="M14.459 8.87436L15.8333 7.5C16.0679 7.2655 16.1851 7.14825 16.2696 7.03605C16.8056 6.32383 16.8056 5.34284 16.2696 4.63063C16.1851 4.51842 16.0679 4.40117 15.8333 4.16667C15.5988 3.93217 15.4816 3.81492 15.3694 3.73047C14.6572 3.19442 13.6762 3.19442 12.964 3.73047C12.8518 3.81491 12.7345 3.93216 12.5 4.16664L12.5 4.16667L11.1064 5.56029C11.9033 6.94053 13.06 8.08831 14.459 8.87436ZM9.6518 7.01488L4.18973 12.477C3.76467 12.902 3.55214 13.1145 3.4124 13.3756C3.27267 13.6367 3.21372 13.9315 3.09583 14.5209L2.6471 16.7646C2.58058 17.0972 2.54732 17.2635 2.64193 17.3581C2.73654 17.4527 2.90284 17.4194 3.23545 17.3529L5.4791 16.9042C6.06855 16.7863 6.36328 16.7274 6.62437 16.5876C6.88547 16.4479 7.098 16.2354 7.52306 15.8103L13.0006 10.3327C11.6528 9.48197 10.5106 8.34754 9.6518 7.01488Z" fill="#FFBA07"/>
</svg>
