<svg width="29" height="29" viewBox="0 0 29 29" fill="none" xmlns="http://www.w3.org/2000/svg">
<path d="M3.625 7.625C3.625 5.73938 3.625 4.79657 4.21079 4.21079C4.79657 3.625 5.73938 3.625 7.625 3.625H21.375C23.2606 3.625 24.2034 3.625 24.7892 4.21079C25.375 4.79657 25.375 5.73938 25.375 7.625V21.375C25.375 23.2606 25.375 24.2034 24.7892 24.7892C24.2034 25.375 23.2606 25.375 21.375 25.375H7.625C5.73938 25.375 4.79657 25.375 4.21079 24.7892C3.625 24.2034 3.625 23.2606 3.625 21.375V7.625Z" stroke="#A6A6A6" stroke-width="2"/>
<path fill-rule="evenodd" clip-rule="evenodd" d="M21.75 12.0833H14.9485C14.131 12.0833 13.7223 12.0833 13.3547 11.9311C12.9872 11.7789 12.6982 11.4898 12.1201 10.9118L10.8382 9.6299C10.2602 9.05184 9.97115 8.76281 9.60361 8.61057C9.23606 8.45833 8.82731 8.45833 8.00981 8.45833H3.625V21.375C3.625 23.2606 3.625 24.2034 4.21079 24.7892C4.79657 25.375 5.73938 25.375 7.625 25.375H21.375C23.2606 25.375 24.2034 25.375 24.7892 24.7892C25.375 24.2034 25.375 23.2606 25.375 21.375V8.45833C25.375 9.98214 25.375 10.744 24.9814 11.2747C24.8642 11.4327 24.7244 11.5726 24.5664 11.6897C24.0357 12.0833 23.2738 12.0833 21.75 12.0833ZM8.45833 18.3333C7.90605 18.3333 7.45833 18.781 7.45833 19.3333C7.45833 19.8856 7.90605 20.3333 8.45833 20.3333H18.125C18.6773 20.3333 19.125 19.8856 19.125 19.3333C19.125 18.781 18.6773 18.3333 18.125 18.3333H8.45833Z" fill="#A6A6A6"/>
</svg>
