<svg width="32" height="32" viewBox="0 0 32 32" fill="none" xmlns="http://www.w3.org/2000/svg">
    <path fill-rule="evenodd" clip-rule="evenodd" d="M7.0327 13.5016C6.66675 14.2972 6.66675 15.2024 6.66675 17.0127V22.6666C6.66675 25.1807 6.66675 26.4378 7.4478 27.2189C8.19354 27.9646 9.37324 27.9983 11.6667 27.9998V21.3333C11.6667 20.0447 12.7114 19 14.0001 19H18.0001C19.2887 19 20.3334 20.0447 20.3334 21.3333V27.9998C22.6269 27.9983 23.8066 27.9646 24.5524 27.2189C25.3334 26.4378 25.3334 25.1807 25.3334 22.6666V17.0127C25.3334 15.2024 25.3334 14.2972 24.9675 13.5016C24.6015 12.7059 23.9143 12.1168 22.5397 10.9387L21.2064 9.79582C18.722 7.66631 17.4798 6.60156 16.0001 6.60156C14.5204 6.60156 13.2782 7.66632 10.7938 9.79582L9.46042 10.9387C8.0859 12.1168 7.39864 12.7059 7.0327 13.5016ZM18.3334 27.9999V21.3333C18.3334 21.1492 18.1842 21 18.0001 21H14.0001C13.816 21 13.6667 21.1492 13.6667 21.3333V27.9999H18.3334Z" fill="#21BA45"/>
</svg>
