<svg width="31" height="31" viewBox="0 0 31 31" fill="none" xmlns="http://www.w3.org/2000/svg">
<path fill-rule="evenodd" clip-rule="evenodd" d="M11.404 6.0102C7.73444 7.59613 5.1665 11.2482 5.1665 15.5C5.1665 15.9052 5.18983 16.305 5.23521 16.698L13.6627 14.4399L11.404 6.0102ZM14.3022 5.23532L16.6899 14.1464L16.7016 14.1898C16.7516 14.3755 16.8221 14.6374 16.853 14.8776C16.892 15.1803 16.9012 15.6591 16.6195 16.147C16.3378 16.6349 15.9186 16.8664 15.6369 16.9839C15.4135 17.0772 15.1514 17.1471 14.9655 17.1967L14.9221 17.2083L6.0102 19.5962C7.59622 23.2656 11.2482 25.8333 15.4998 25.8333C21.2068 25.8333 25.8332 21.2069 25.8332 15.5C25.8332 9.79305 21.2068 5.16666 15.4998 5.16666C15.0948 5.16666 14.6951 5.18997 14.3022 5.23532Z" fill="#A6A6A6"/>
<path d="M12.6745 4.95531C12.4245 4.02253 12.2996 3.55614 11.8843 3.35749C11.469 3.15885 11.0703 3.33534 10.2727 3.6883C9.33722 4.10229 8.45207 4.6269 7.63675 5.25252C6.29103 6.28513 5.16188 7.57268 4.31376 9.04167C3.46564 10.5107 2.91516 12.1323 2.69376 13.814C2.55961 14.8329 2.54786 15.8618 2.65707 16.8789C2.75018 17.7461 2.79673 18.1797 3.17639 18.44C3.55605 18.7004 4.02244 18.5754 4.95523 18.3254L13.5681 16.0176C14.4788 15.7736 14.9341 15.6516 15.1412 15.2929C15.3483 14.9342 15.2263 14.4788 14.9823 13.5682L12.6745 4.95531Z" fill="#A6A6A6"/>
</svg>
