<svg width="22" height="22" viewBox="0 0 22 22" fill="none" xmlns="http://www.w3.org/2000/svg">
<path fill-rule="evenodd" clip-rule="evenodd" d="M12.8564 2.45932C12.9098 2.59182 12.9261 2.75504 12.9588 3.08148C13.0205 3.69871 13.0514 4.00733 13.1555 4.19099C13.3816 4.58975 13.8499 4.78372 14.2917 4.66163C14.4952 4.6054 14.7353 4.409 15.2154 4.0162L15.2154 4.01619C15.4693 3.80846 15.5962 3.70459 15.7277 3.6487C16.0097 3.52886 16.331 3.54488 16.5997 3.69219C16.725 3.76089 16.8409 3.87687 17.0729 4.10885L17.8919 4.92786L17.8919 4.92787C18.1239 5.15984 18.2399 5.27583 18.3086 5.40111C18.4559 5.66975 18.4719 5.99109 18.3521 6.27306C18.2962 6.40455 18.1923 6.53151 17.9846 6.78542C17.5918 7.26553 17.3954 7.50558 17.3391 7.70909C17.217 8.15093 17.411 8.6192 17.8098 8.8453C17.9934 8.94944 18.3021 8.9803 18.9193 9.04203C19.2458 9.07467 19.409 9.091 19.5415 9.14446C19.8256 9.2591 20.0415 9.49765 20.1273 9.79176C20.1673 9.92893 20.1673 10.093 20.1673 10.4211V11.5794C20.1673 11.9074 20.1673 12.0714 20.1273 12.2085C20.0415 12.5027 19.8256 12.7413 19.5414 12.8559C19.409 12.9093 19.2458 12.9257 18.9194 12.9583C18.3024 13.02 17.9939 13.0508 17.8103 13.1549C17.4114 13.381 17.2173 13.8494 17.3395 14.2914C17.3958 14.4948 17.5921 14.7347 17.9847 15.2146C18.1924 15.4684 18.2962 15.5953 18.3521 15.7267C18.472 16.0088 18.456 16.3302 18.3086 16.5989C18.2399 16.7241 18.124 16.8401 17.8921 17.072L17.073 17.8911L17.0729 17.8911C16.841 18.1231 16.725 18.239 16.5997 18.3077C16.3311 18.455 16.0097 18.4711 15.7278 18.3512C15.5963 18.2953 15.4693 18.1915 15.2154 17.9837L15.2154 17.9837C14.7353 17.5909 14.4953 17.3945 14.2918 17.3383C13.8499 17.2162 13.3816 17.4102 13.1555 17.8089C13.0514 17.9926 13.0205 18.3013 12.9588 18.9186C12.9261 19.2452 12.9098 19.4086 12.8563 19.5411C12.7417 19.8251 12.5032 20.041 12.2091 20.1268C12.0719 20.1668 11.9078 20.1668 11.5796 20.1668H10.4215C10.0935 20.1668 9.92942 20.1668 9.79225 20.1268C9.49814 20.041 9.25959 19.8251 9.14495 19.541C9.09149 19.4085 9.07516 19.2453 9.04252 18.9188C8.98079 18.3016 8.94993 17.9929 8.84578 17.8093C8.61968 17.4105 8.15142 17.2166 7.70959 17.3386C7.50607 17.3949 7.26601 17.5913 6.78589 17.9841L6.78587 17.9841C6.53196 18.1919 6.40499 18.2958 6.27349 18.3516C5.99153 18.4715 5.67021 18.4555 5.40157 18.3082C5.27628 18.2395 5.16028 18.1235 4.92829 17.8915L4.10931 17.0725C3.87732 16.8405 3.76133 16.7245 3.69263 16.5992C3.54533 16.3306 3.52931 16.0092 3.64914 15.7273C3.70503 15.5958 3.80891 15.4688 4.01666 15.2149L4.01666 15.2149C4.40948 14.7348 4.60588 14.4947 4.66211 14.2912C4.7842 13.8494 4.59024 13.3811 4.19147 13.155C4.00782 13.0509 3.6992 13.02 3.08196 12.9583C2.75553 12.9256 2.59231 12.9093 2.45981 12.8559C2.17569 12.7412 1.9598 12.5027 1.874 12.2086C1.83398 12.0714 1.83398 11.9074 1.83398 11.5793V10.4211C1.83398 10.093 1.83398 9.92889 1.87402 9.79168C1.95983 9.49764 2.17567 9.25913 2.45972 9.14449C2.59226 9.091 2.75553 9.07467 3.08208 9.04202C3.69951 8.98028 4.00823 8.9494 4.19194 8.84521C4.59058 8.6191 4.7845 8.15094 4.66249 7.70918C4.60627 7.5056 4.40979 7.26546 4.01682 6.78516C3.80896 6.53111 3.70503 6.40409 3.64914 6.27252C3.52937 5.99062 3.54539 5.66939 3.69261 5.40081C3.76132 5.27546 3.87737 5.15942 4.10946 4.92733L4.10946 4.92733L4.92833 4.10845C5.16033 3.87646 5.27632 3.76046 5.40161 3.69176C5.67025 3.54447 5.99158 3.52844 6.27353 3.64828C6.40504 3.70417 6.53203 3.80806 6.786 4.01586C7.26603 4.40862 7.50605 4.605 7.70948 4.66123C8.1514 4.78341 8.6198 4.58939 8.8459 4.19051C8.94998 4.0069 8.98083 3.69839 9.04253 3.08136C9.07517 2.75503 9.09148 2.59187 9.14491 2.45941C9.25955 2.17521 9.49816 1.95927 9.79235 1.87348C9.92947 1.8335 10.0935 1.8335 10.4214 1.8335H11.5798C11.9078 1.8335 12.0719 1.8335 12.209 1.87351C12.5032 1.95931 12.7417 2.1752 12.8564 2.45932ZM11.0007 14.6668C13.0257 14.6668 14.6673 13.0252 14.6673 11.0002C14.6673 8.97512 13.0257 7.3335 11.0007 7.3335C8.97561 7.3335 7.33399 8.97512 7.33399 11.0002C7.33399 13.0252 8.97561 14.6668 11.0007 14.6668Z" fill="white"/>
</svg>
