<svg width="21" height="21" viewBox="0 0 21 21" fill="none" xmlns="http://www.w3.org/2000/svg">
<path fill-rule="evenodd" clip-rule="evenodd" d="M13.246 2.26859L11.3064 1.96381C8.08584 1.45772 6.47555 1.20467 5.42527 2.10279C4.375 3.00091 4.375 4.63096 4.375 7.89107V9.49995H9.29438L7.09413 6.74964L8.65587 5.50025L12.1559 9.87525L12.6556 10.4999L12.1559 11.1246L8.65587 15.4996L7.09413 14.2503L9.29438 11.4999H4.375V13.1081C4.375 16.3682 4.375 17.9983 5.42527 18.8964C6.47555 19.7945 8.08584 19.5415 11.3064 19.0354L13.246 18.7306C14.8587 18.4771 15.665 18.3504 16.145 17.7891C16.625 17.2279 16.625 16.4116 16.625 14.7791V6.2201C16.625 4.58758 16.625 3.77132 16.145 3.21003C15.665 2.64874 14.8587 2.52202 13.246 2.26859Z" fill="white"/>
</svg>
