<svg width="29" height="29" viewBox="0 0 29 29" fill="none" xmlns="http://www.w3.org/2000/svg">
<path fill-rule="evenodd" clip-rule="evenodd" d="M2.41675 14.5C2.41675 7.82656 7.82664 2.41666 14.5001 2.41666C21.1735 2.41666 26.5834 7.82656 26.5834 14.5C26.5834 18.2219 24.9007 21.5507 22.2546 23.7672C21.7195 22.2939 20.7737 20.9984 19.5224 20.0382C18.0816 18.9326 16.3162 18.3333 14.5001 18.3333C12.684 18.3333 10.9186 18.9326 9.4778 20.0382C8.22643 20.9984 7.28062 22.2939 6.74558 23.7672C4.09945 21.5507 2.41675 18.2219 2.41675 14.5ZM20.5371 24.9657L20.538 24.969C18.7615 25.9957 16.6994 26.5833 14.5001 26.5833C12.3007 26.5833 10.2386 25.9957 8.46216 24.969L8.46305 24.9657C8.81914 23.6368 9.6038 22.4624 10.6953 21.6249C11.7868 20.7873 13.1242 20.3333 14.5001 20.3333C15.8759 20.3333 17.2133 20.7873 18.3048 21.6249C19.3964 22.4624 20.181 23.6368 20.5371 24.9657ZM11.8751 10.875C11.8751 9.42525 13.0503 8.25 14.5001 8.25C15.9498 8.25 17.1251 9.42525 17.1251 10.875C17.1251 12.3247 15.9498 13.5 14.5001 13.5C13.0503 13.5 11.8751 12.3247 11.8751 10.875ZM14.5001 6.25C11.9458 6.25 9.87508 8.32068 9.87508 10.875C9.87508 13.4293 11.9458 15.5 14.5001 15.5C17.0544 15.5 19.1251 13.4293 19.1251 10.875C19.1251 8.32068 17.0544 6.25 14.5001 6.25Z" fill="#A6A6A6"/>
<rect x="2.91675" y="2.91666" width="23.1667" height="23.1667" rx="11.5833" stroke="#A6A6A6"/>
</svg>
