<svg width="13" height="14" viewBox="0 0 13 14" fill="none" xmlns="http://www.w3.org/2000/svg">
<path d="M6.42928 0C2.93265 0 0.0996094 3.02598 0.0996094 6.76074C0.0996094 10.4955 2.93265 13.5215 6.42928 13.5215C9.92591 13.5215 12.7589 10.4955 12.7589 6.76074C12.7589 3.02598 9.92591 0 6.42928 0ZM11.9422 6.76074C11.9422 9.99663 9.48947 12.6491 6.42928 12.6491C3.39971 12.6491 0.916341 10.0293 0.916341 6.76074C0.916341 3.52485 3.36909 0.872354 6.42928 0.872354C9.45884 0.872354 11.9422 3.49214 11.9422 6.76074ZM8.14186 9.16789L6.0694 7.55949C5.99028 7.49679 5.94434 7.39865 5.94434 7.29506V2.94419C5.94434 2.76427 6.08217 2.61706 6.25062 2.61706H6.60794C6.77639 2.61706 6.91421 2.76427 6.91421 2.94419V6.93249L8.71357 8.33098C8.8514 8.4373 8.87947 8.64176 8.77993 8.78897L8.57064 9.09702C8.4711 9.2415 8.27968 9.27421 8.14186 9.16789Z" fill="#202020"/>
</svg>
